<svg width="48" height="29" viewBox="0 0 48 29" fill="none" xmlns="http://www.w3.org/2000/svg">
<path fill-rule="evenodd" clip-rule="evenodd" d="M0.122458 0.655863C0.770122 3.33538 6.45435 19.4085 9.07327 25.965L10.2326 28.8674L12.4503 28.9338L14.6682 29L18.8202 25.7198L22.9724 22.4396V19.8485L22.9722 17.2577L21.7178 16.3129C21.0276 15.7933 16.0652 12.0988 10.6901 8.10302C5.31487 4.10719 0.694051 0.614067 0.421461 0.340543C-0.073796 -0.156584 -0.0740602 -0.156351 0.122458 0.655863ZM47.5261 0.319181C47.3335 0.52328 44.0775 3.00218 40.2909 5.82798C36.5042 8.65378 31.5336 12.3689 29.2457 14.0843L25.0855 17.2029V19.8179V22.4329L29.2457 25.7093L33.4058 28.9858L35.6291 28.9266L37.8521 28.8674L39.9316 23.4109C43.5786 13.8419 48.2554 0.281101 47.9891 0.04705C47.9273 -0.0072834 47.7189 0.115083 47.5261 0.319181ZM2.21416 3.58708C2.7493 5.54587 5.48471 13.3028 8.05872 20.1601L10.9782 27.9386L12.5578 28.0064L14.1373 28.0742L17.8944 25.1175L21.6517 22.1607V19.8764V17.5919L20.7933 16.932C20.3213 16.569 15.9065 13.2675 10.9832 9.59556C3.58979 4.08142 2.06334 3.03539 2.21416 3.58708ZM36.1109 10.251L26.4065 17.4899L26.4067 19.8119L26.407 22.1338L30.0381 24.9875L33.6695 27.8411L35.3866 27.7738L37.1038 27.7064L39.7483 20.7406C42.4459 13.6357 46.0744 3.23972 45.9077 3.09343C45.857 3.04885 41.4486 6.26985 36.1109 10.251Z" fill="white"/>
</svg>
